#!OML:ASF E:\acrobat2\Project_11_07_03\Capture day 1\Session 1\Acrobat.ASF
:FULLY-SPECIFIED
:DEGREES
260
root 11.0898 17.9309 -37.9281 3.86299 -1.35278 -0.681019
lowerback -5.99292 -0.181845 -2.22698
upperback -0.265305 -0.0636865 -0.834877
thorax 3.08885 -0.057745 0.384298
lowerneck 2.51277 -4.70799 -3.10709
upperneck 1.24954 -6.39582 5.88733
head 0.272618 -3.22377 2.39946
rclavicle -9.98893e-015 2.06736e-014
rhumerus -39.0993 1.53584 -85.0285
rradius 27.1105
rwrist 4.69217
rhand 1.57527 -47.2413
rfingers 7.12502
rthumb 27.0983 -75.3164
lclavicle -9.98893e-015 2.06736e-014
lhumerus -32.5482 -16.8593 92.1342
lradius 23.4933
lwrist 11.6984
lhand -11.5557 -9.99311
lfingers 7.12502
lthumb 14.4851 19.4813
rfemur -4.12209 -0.402515 17.5646
rtibia 20.892
rfoot -25.6608 -12.5004
rtoes 5.6518
lfemur -1.23319 -1.92067 -19.2043
ltibia 12.331
lfoot -11.5815 -12.3054
ltoes 29.7232
261
root 11.1002 17.9208 -37.9046 3.7292 -1.4479 -0.526722
lowerback -5.92744 -0.154311 -2.42075
upperback -0.106849 -0.0105093 -0.897815
thorax 3.21475 -0.0359151 0.432386
lowerneck 2.5982 -4.65629 -3.08806
upperneck 1.13814 -6.32124 5.72378
head 0.21305 -3.18828 2.34698
rclavicle -7.52897e-015 -8.74653e-015
rhumerus -39.0228 1.58238 -85.0965
rradius 27.2902
rwrist 4.49606
rhand 1.52407 -47.1876
rfingers 7.12502
rthumb 27.0493 -75.2704
lclavicle -7.52897e-015 -8.74653e-015
lhumerus -32.5169 -16.9946 92.0028
lradius 23.6677
lwrist 11.7755
lhand -11.6814 -10.0011
lfingers 7.12502
lthumb 14.364 19.482
rfemur -4.84741 -0.795887 17.2577
rtibia 22.5304
rfoot -25.5921 -12.2406
rtoes 5.08085
lfemur -1.0548 -1.94332 -19.4681
ltibia 12.451
lfoot -11.6607 -12.2894
ltoes 29.9048
262
root 11.11 17.9118 -37.8808 3.60957 -1.51687 -0.371724
lowerback -5.82541 -0.130815 -2.60404
upperback 0.0396833 0.0354447 -0.968758
thorax 3.30788 -0.0174037 0.465751
lowerneck 2.62309 -4.59953 -3.03216
upperneck 1.0463 -6.23894 5.54356
head 0.168058 -3.14753 2.28048
rclavicle -1.25483e-015 -7.15625e-015
rhumerus -38.9595 1.6207 -85.1853
rradius 27.4893
rwrist 4.31916
rhand 1.48393 -47.139
rfingers 7.12502
rthumb 27.0109 -75.2277
lclavicle -1.25483e-015 -7.15625e-015
lhumerus -32.4682 -17.1424 91.8606
lradius 23.791
lwrist 11.8334
lhand -11.8208 -10.0314
lfingers 7.12502
lthumb 14.2296 19.4611
rfemur -5.60201 -1.19009 16.9639
rtibia 24.1903
rfoot -25.5393 -12.0222
rtoes 4.73507
lfemur -0.901464 -1.97865 -19.7314
ltibia 12.5818
lfoot -11.7439 -12.2817
ltoes 30.0086
263
root 11.1195 17.904 -37.8558 3.51081 -1.59455 -0.234438
lowerback -5.73269 -0.10048 -2.74602
upperback 0.182011 0.0882913 -1.04991
thorax 3.40163 0.00506637 0.465941
lowerneck 2.62916 -4.53296 -2.94587
upperneck 0.929134 -6.14181 5.37044
head 0.117286 -3.09915 2.21094
rclavicle -2.18663e-015 1.19271e-015
rhumerus -38.8986 1.63326 -85.2956
rradius 27.696
rwrist 4.17872
rhand 1.46856 -47.1171
rfingers 7.12502
rthumb 26.9962 -75.2081
lclavicle -2.18663e-015 1.19271e-015
lhumerus -32.3943 -17.2905 91.6919
lradius 23.8609
lwrist 11.8741
lhand -11.9464 -10.051
lfingers 7.12502
lthumb 14.1086 19.4501
rfemur -6.39064 -1.55283 16.7031
rtibia 25.8667
rfoot -25.5236 -11.7984
rtoes 4.71174
lfemur -0.765562 -2.00784 -19.9714
ltibia 12.707
lfoot -11.8606 -12.271
ltoes 29.9886
264
root 11.1288 17.8966 -37.8292 3.46055 -1.69801 -0.12417
lowerback -5.6709 -0.0617267 -2.83759
upperback 0.289926 0.149484 -1.13605
thorax 3.47696 0.0329257 0.433435
lowerneck 2.6713 -4.45474 -2.8584
upperneck 0.803144 -6.02985 5.22233
head 0.0581785 -3.04393 2.15066
rclavicle 1.32316e-014 -4.77083e-015
rhumerus -38.8808 1.64347 -85.4301
rradius 27.9036
rwrist 4.06303
rhand 1.46378 -47.0904
rfingers 7.12502
rthumb 26.9917 -75.1821
lclavicle 1.32316e-014 -4.77083e-015
lhumerus -32.3493 -17.4161 91.5065
lradius 23.898
lwrist 11.9043
lhand -12.0285 -10.0394
lfingers 7.12502
lthumb 14.0296 19.4672
rfemur -7.24312 -1.88177 16.4848
rtibia 27.5114
rfoot -25.4758 -11.599
rtoes 4.78202
lfemur -0.669906 -2.03226 -20.1768
ltibia 12.8188
lfoot -12.0181 -12.2528
ltoes 29.9052
265
root 11.1379 17.8901 -37.801 3.45002 -1.80944 -0.0388594
lowerback -5.62945 -0.0153816 -2.88605
upperback 0.366365 0.21814 -1.22817
thorax 3.53111 0.065769 0.371275
lowerneck 2.73836 -4.37412 -2.76055
upperneck 0.687 -5.91551 5.09648
head -0.00136646 -2.98777 2.09638
rclavicle -7.05686e-015 7.15625e-015
rhumerus -38.9045 1.638 -85.5842
rradius 28.1035
rwrist 3.96856
rhand 1.45806 -47.0209
rfingers 7.12502
rthumb 26.9862 -75.1134
lclavicle -7.05686e-015 7.15625e-015
lhumerus -32.3384 -17.5286 91.3076
lradius 23.9158
lwrist 11.9206
lhand -12.0668 -9.99035
lfingers 7.12502
lthumb 13.9927 19.5187
rfemur -8.1371 -2.19905 16.3072
rtibia 29.083
rfoot -25.3674 -11.4307
rtoes 4.802
lfemur -0.600715 -2.05883 -20.3498
ltibia 12.9103
lfoot -12.1882 -12.2363
ltoes 29.8434
266
root 11.147 17.8849 -37.7705 3.46317 -1.91762 0.0176333
lowerback -5.61294 0.0177959 -2.91018
upperback 0.409759 0.267066 -1.30035
thorax 3.56571 0.0895582 0.314419
lowerneck 2.89208 -4.27361 -2.69575
upperneck 0.574185 -5.77721 4.98614
head -0.0737214 -2.92075 2.0553
rclavicle -1.963e-015 5.56597e-015
rhumerus -38.9934 1.68922 -85.7463
rradius 28.3029
rwrist 3.88392
rhand 1.44721 -46.8843
rfingers 7.12502
rthumb 26.9758 -74.9785
lclavicle -1.963e-015 5.56597e-015
lhumerus -32.3878 -17.5432 91.1094
lradius 23.9153
lwrist 11.8896
lhand -12.0874 -9.9228
lfingers 7.12502
lthumb 13.9728 19.5876
rfemur -9.04047 -2.5125 16.1737
rtibia 30.5583
rfoot -25.2064 -11.2687
rtoes 4.69814
lfemur -0.527553 -2.09142 -20.4884
ltibia 12.9629
lfoot -12.3577 -12.2094
ltoes 29.7886
267
root 11.1563 17.881 -37.7379 3.48357 -2.01349 0.0429096
lowerback -5.5998 0.0509065 -2.8986
upperback 0.438399 0.312955 -1.36446
thorax 3.58718 0.112718 0.24564
lowerneck 3.06803 -4.1725 -2.63387
upperneck 0.486046 -5.63947 4.89498
head -0.141138 -2.8541 2.02101
rclavicle -3.2054e-015 1.35174e-014
rhumerus -39.1203 1.73635 -85.9085
rradius 28.5019
rwrist 3.80986
rhand 1.44071 -46.729
rfingers 7.12502
rthumb 26.9696 -74.8241
lclavicle -3.2054e-015 1.35174e-014
lhumerus -32.4691 -17.5204 90.908
lradius 23.9015
lwrist 11.8266
lhand -12.1008 -9.8662
lfingers 7.12502
lthumb 13.9598 19.6451
rfemur -9.92664 -2.82417 16.0868
rtibia 31.9228
rfoot -25.0013 -11.0864
rtoes 4.48769
lfemur -0.42896 -2.14147 -20.5944
ltibia 12.9718
lfoot -12.5367 -12.1626
ltoes 29.6885
268
root 11.1654 17.8789 -37.7034 3.50008 -2.08303 0.0475643
lowerback -5.57927 0.0739752 -2.88098
upperback 0.45794 0.343836 -1.4099
thorax 3.59546 0.128593 0.191462
lowerneck 3.2689 -4.06851 -2.59229
upperneck 0.418511 -5.49964 4.82667
head -0.204977 -2.78662 1.99782
rclavicle 1.79155e-014 -3.18055e-015
rhumerus -39.2718 1.80444 -86.06
rradius 28.697
rwrist 3.72283
rhand 1.4439 -46.5928
rfingers 7.12502
rthumb 26.9726 -74.6874
lclavicle 1.79155e-014 -3.18055e-015
lhumerus -32.5783 -17.4312 90.7115
lradius 23.8741
lwrist 11.7276
lhand -12.0996 -9.82413
lfingers 7.12502
lthumb 13.961 19.6871
rfemur -10.7788 -3.13878 16.0364
rtibia 33.1586
rfoot -24.7622 -10.8878
rtoes 4.21215
lfemur -0.29928 -2.21716 -20.6795
ltibia 12.9438
lfoot -12.7225 -12.1062
ltoes 29.5443
269
root 11.1737 17.8778 -37.6674 3.5203 -2.12966 0.0431436
lowerback -5.55269 0.0882583 -2.87227
upperback 0.46233 0.36243 -1.44161
thorax 3.58486 0.138385 0.155371
lowerneck 3.48787 -3.96427 -2.54237
upperneck 0.365955 -5.35987 4.75692
head -0.267289 -2.71916 1.97272
rclavicle -3.70236e-015 2.78299e-014
rhumerus -39.4546 1.88574 -86.2011
rradius 28.892
rwrist 3.61399
rhand 1.45679 -46.4973
rfingers 7.12502
rthumb 26.985 -74.59
lclavicle -3.70236e-015 2.78299e-014
lhumerus -32.7235 -17.3086 90.5305
lradius 23.829
lwrist 11.6179
lhand -12.0947 -9.79231
lfingers 7.12502
lthumb 13.9657 19.7186
rfemur -11.6056 -3.43885 16.0121
rtibia 34.2661
rfoot -24.5348 -10.6527
rtoes 4.13364
lfemur -0.150631 -2.31153 -20.7523
ltibia 12.8822
lfoot -12.9018 -12.0524
ltoes 29.4121
